<?xml version="1.0" encoding="utf-8" standalone="no"?>
<!DOCTYPE svg PUBLIC "-//W3C//DTD SVG 1.1//EN"
  "http://www.w3.org/Graphics/SVG/1.1/DTD/svg11.dtd">
<svg height="345.6pt" version="1.1" viewBox="0 0 460.8 345.6" width="460.8pt" xmlns="http://www.w3.org/2000/svg" xmlns:xlink="http://www.w3.org/1999/xlink">
 <metadata>
  <rdf:RDF xmlns:cc="http://creativecommons.org/ns#" xmlns:dc="http://purl.org/dc/elements/1.1/" xmlns:rdf="http://www.w3.org/1999/02/22-rdf-syntax-ns#">
   <cc:Work>
    <dc:type rdf:resource="http://purl.org/dc/dcmitype/StillImage"/>
    <dc:date>2021-06-01T00:58:48.820670</dc:date>
    <dc:format>image/svg+xml</dc:format>
    <dc:creator>
     <cc:Agent>
      <dc:title>Matplotlib v3.4.1, https://matplotlib.org/</dc:title>
     </cc:Agent>
    </dc:creator>
   </cc:Work>
  </rdf:RDF>
 </metadata>
 <defs>
  <style type="text/css">*{stroke-linecap:butt;stroke-linejoin:round;}</style>
 </defs>
 <g id="figure_1">
  <g id="patch_1">
   <path d="M 0 345.6 
L 460.8 345.6 
L 460.8 0 
L 0 0 
z
" style="fill:#ffffff;"/>
  </g>
  <g id="axes_1">
   <g id="patch_2">
    <path d="M 57.6 307.584 
L 414.72 307.584 
L 414.72 41.472 
L 57.6 41.472 
z
" style="fill:#ffffff;"/>
   </g>
   <g id="matplotlib.axis_1">
    <g id="xtick_1">
     <g id="line2d_1">
      <defs>
       <path d="M 0 0 
L 0 3.5 
" id="m7e173f7f23" style="stroke:#000000;stroke-width:0.8;"/>
      </defs>
      <g>
       <use style="stroke:#000000;stroke-width:0.8;" x="73.832727" xlink:href="#m7e173f7f23" y="307.584"/>
      </g>
     </g>
     <g id="text_1">
      <!-- 0 -->
      <g transform="translate(70.651477 322.182437)scale(0.1 -0.1)">
       <defs>
        <path d="M 2034 4250 
Q 1547 4250 1301 3770 
Q 1056 3291 1056 2328 
Q 1056 1369 1301 889 
Q 1547 409 2034 409 
Q 2525 409 2770 889 
Q 3016 1369 3016 2328 
Q 3016 3291 2770 3770 
Q 2525 4250 2034 4250 
z
M 2034 4750 
Q 2819 4750 3233 4129 
Q 3647 3509 3647 2328 
Q 3647 1150 3233 529 
Q 2819 -91 2034 -91 
Q 1250 -91 836 529 
Q 422 1150 422 2328 
Q 422 3509 836 4129 
Q 1250 4750 2034 4750 
z
" id="DejaVuSans-30" transform="scale(0.015625)"/>
       </defs>
       <use xlink:href="#DejaVuSans-30"/>
      </g>
     </g>
    </g>
    <g id="xtick_2">
     <g id="line2d_2">
      <g>
       <use style="stroke:#000000;stroke-width:0.8;" x="139.024403" xlink:href="#m7e173f7f23" y="307.584"/>
      </g>
     </g>
     <g id="text_2">
      <!-- 50 -->
      <g transform="translate(132.661903 322.182437)scale(0.1 -0.1)">
       <defs>
        <path d="M 691 4666 
L 3169 4666 
L 3169 4134 
L 1269 4134 
L 1269 2991 
Q 1406 3038 1543 3061 
Q 1681 3084 1819 3084 
Q 2600 3084 3056 2656 
Q 3513 2228 3513 1497 
Q 3513 744 3044 326 
Q 2575 -91 1722 -91 
Q 1428 -91 1123 -41 
Q 819 9 494 109 
L 494 744 
Q 775 591 1075 516 
Q 1375 441 1709 441 
Q 2250 441 2565 725 
Q 2881 1009 2881 1497 
Q 2881 1984 2565 2268 
Q 2250 2553 1709 2553 
Q 1456 2553 1204 2497 
Q 953 2441 691 2322 
L 691 4666 
z
" id="DejaVuSans-35" transform="scale(0.015625)"/>
       </defs>
       <use xlink:href="#DejaVuSans-35"/>
       <use x="63.623047" xlink:href="#DejaVuSans-30"/>
      </g>
     </g>
    </g>
    <g id="xtick_3">
     <g id="line2d_3">
      <g>
       <use style="stroke:#000000;stroke-width:0.8;" x="204.216079" xlink:href="#m7e173f7f23" y="307.584"/>
      </g>
     </g>
     <g id="text_3">
      <!-- 100 -->
      <g transform="translate(194.672329 322.182437)scale(0.1 -0.1)">
       <defs>
        <path d="M 794 531 
L 1825 531 
L 1825 4091 
L 703 3866 
L 703 4441 
L 1819 4666 
L 2450 4666 
L 2450 531 
L 3481 531 
L 3481 0 
L 794 0 
L 794 531 
z
" id="DejaVuSans-31" transform="scale(0.015625)"/>
       </defs>
       <use xlink:href="#DejaVuSans-31"/>
       <use x="63.623047" xlink:href="#DejaVuSans-30"/>
       <use x="127.246094" xlink:href="#DejaVuSans-30"/>
      </g>
     </g>
    </g>
    <g id="xtick_4">
     <g id="line2d_4">
      <g>
       <use style="stroke:#000000;stroke-width:0.8;" x="269.407755" xlink:href="#m7e173f7f23" y="307.584"/>
      </g>
     </g>
     <g id="text_4">
      <!-- 150 -->
      <g transform="translate(259.864005 322.182437)scale(0.1 -0.1)">
       <use xlink:href="#DejaVuSans-31"/>
       <use x="63.623047" xlink:href="#DejaVuSans-35"/>
       <use x="127.246094" xlink:href="#DejaVuSans-30"/>
      </g>
     </g>
    </g>
    <g id="xtick_5">
     <g id="line2d_5">
      <g>
       <use style="stroke:#000000;stroke-width:0.8;" x="334.59943" xlink:href="#m7e173f7f23" y="307.584"/>
      </g>
     </g>
     <g id="text_5">
      <!-- 200 -->
      <g transform="translate(325.05568 322.182437)scale(0.1 -0.1)">
       <defs>
        <path d="M 1228 531 
L 3431 531 
L 3431 0 
L 469 0 
L 469 531 
Q 828 903 1448 1529 
Q 2069 2156 2228 2338 
Q 2531 2678 2651 2914 
Q 2772 3150 2772 3378 
Q 2772 3750 2511 3984 
Q 2250 4219 1831 4219 
Q 1534 4219 1204 4116 
Q 875 4013 500 3803 
L 500 4441 
Q 881 4594 1212 4672 
Q 1544 4750 1819 4750 
Q 2544 4750 2975 4387 
Q 3406 4025 3406 3419 
Q 3406 3131 3298 2873 
Q 3191 2616 2906 2266 
Q 2828 2175 2409 1742 
Q 1991 1309 1228 531 
z
" id="DejaVuSans-32" transform="scale(0.015625)"/>
       </defs>
       <use xlink:href="#DejaVuSans-32"/>
       <use x="63.623047" xlink:href="#DejaVuSans-30"/>
       <use x="127.246094" xlink:href="#DejaVuSans-30"/>
      </g>
     </g>
    </g>
    <g id="xtick_6">
     <g id="line2d_6">
      <g>
       <use style="stroke:#000000;stroke-width:0.8;" x="399.791106" xlink:href="#m7e173f7f23" y="307.584"/>
      </g>
     </g>
     <g id="text_6">
      <!-- 250 -->
      <g transform="translate(390.247356 322.182437)scale(0.1 -0.1)">
       <use xlink:href="#DejaVuSans-32"/>
       <use x="63.623047" xlink:href="#DejaVuSans-35"/>
       <use x="127.246094" xlink:href="#DejaVuSans-30"/>
      </g>
     </g>
    </g>
    <g id="text_7">
     <!-- epochs -->
     <g transform="translate(218.327188 335.860562)scale(0.1 -0.1)">
      <defs>
       <path d="M 3597 1894 
L 3597 1613 
L 953 1613 
Q 991 1019 1311 708 
Q 1631 397 2203 397 
Q 2534 397 2845 478 
Q 3156 559 3463 722 
L 3463 178 
Q 3153 47 2828 -22 
Q 2503 -91 2169 -91 
Q 1331 -91 842 396 
Q 353 884 353 1716 
Q 353 2575 817 3079 
Q 1281 3584 2069 3584 
Q 2775 3584 3186 3129 
Q 3597 2675 3597 1894 
z
M 3022 2063 
Q 3016 2534 2758 2815 
Q 2500 3097 2075 3097 
Q 1594 3097 1305 2825 
Q 1016 2553 972 2059 
L 3022 2063 
z
" id="DejaVuSans-65" transform="scale(0.015625)"/>
       <path d="M 1159 525 
L 1159 -1331 
L 581 -1331 
L 581 3500 
L 1159 3500 
L 1159 2969 
Q 1341 3281 1617 3432 
Q 1894 3584 2278 3584 
Q 2916 3584 3314 3078 
Q 3713 2572 3713 1747 
Q 3713 922 3314 415 
Q 2916 -91 2278 -91 
Q 1894 -91 1617 61 
Q 1341 213 1159 525 
z
M 3116 1747 
Q 3116 2381 2855 2742 
Q 2594 3103 2138 3103 
Q 1681 3103 1420 2742 
Q 1159 2381 1159 1747 
Q 1159 1113 1420 752 
Q 1681 391 2138 391 
Q 2594 391 2855 752 
Q 3116 1113 3116 1747 
z
" id="DejaVuSans-70" transform="scale(0.015625)"/>
       <path d="M 1959 3097 
Q 1497 3097 1228 2736 
Q 959 2375 959 1747 
Q 959 1119 1226 758 
Q 1494 397 1959 397 
Q 2419 397 2687 759 
Q 2956 1122 2956 1747 
Q 2956 2369 2687 2733 
Q 2419 3097 1959 3097 
z
M 1959 3584 
Q 2709 3584 3137 3096 
Q 3566 2609 3566 1747 
Q 3566 888 3137 398 
Q 2709 -91 1959 -91 
Q 1206 -91 779 398 
Q 353 888 353 1747 
Q 353 2609 779 3096 
Q 1206 3584 1959 3584 
z
" id="DejaVuSans-6f" transform="scale(0.015625)"/>
       <path d="M 3122 3366 
L 3122 2828 
Q 2878 2963 2633 3030 
Q 2388 3097 2138 3097 
Q 1578 3097 1268 2742 
Q 959 2388 959 1747 
Q 959 1106 1268 751 
Q 1578 397 2138 397 
Q 2388 397 2633 464 
Q 2878 531 3122 666 
L 3122 134 
Q 2881 22 2623 -34 
Q 2366 -91 2075 -91 
Q 1284 -91 818 406 
Q 353 903 353 1747 
Q 353 2603 823 3093 
Q 1294 3584 2113 3584 
Q 2378 3584 2631 3529 
Q 2884 3475 3122 3366 
z
" id="DejaVuSans-63" transform="scale(0.015625)"/>
       <path d="M 3513 2113 
L 3513 0 
L 2938 0 
L 2938 2094 
Q 2938 2591 2744 2837 
Q 2550 3084 2163 3084 
Q 1697 3084 1428 2787 
Q 1159 2491 1159 1978 
L 1159 0 
L 581 0 
L 581 4863 
L 1159 4863 
L 1159 2956 
Q 1366 3272 1645 3428 
Q 1925 3584 2291 3584 
Q 2894 3584 3203 3211 
Q 3513 2838 3513 2113 
z
" id="DejaVuSans-68" transform="scale(0.015625)"/>
       <path d="M 2834 3397 
L 2834 2853 
Q 2591 2978 2328 3040 
Q 2066 3103 1784 3103 
Q 1356 3103 1142 2972 
Q 928 2841 928 2578 
Q 928 2378 1081 2264 
Q 1234 2150 1697 2047 
L 1894 2003 
Q 2506 1872 2764 1633 
Q 3022 1394 3022 966 
Q 3022 478 2636 193 
Q 2250 -91 1575 -91 
Q 1294 -91 989 -36 
Q 684 19 347 128 
L 347 722 
Q 666 556 975 473 
Q 1284 391 1588 391 
Q 1994 391 2212 530 
Q 2431 669 2431 922 
Q 2431 1156 2273 1281 
Q 2116 1406 1581 1522 
L 1381 1569 
Q 847 1681 609 1914 
Q 372 2147 372 2553 
Q 372 3047 722 3315 
Q 1072 3584 1716 3584 
Q 2034 3584 2315 3537 
Q 2597 3491 2834 3397 
z
" id="DejaVuSans-73" transform="scale(0.015625)"/>
      </defs>
      <use xlink:href="#DejaVuSans-65"/>
      <use x="61.523438" xlink:href="#DejaVuSans-70"/>
      <use x="125" xlink:href="#DejaVuSans-6f"/>
      <use x="186.181641" xlink:href="#DejaVuSans-63"/>
      <use x="241.162109" xlink:href="#DejaVuSans-68"/>
      <use x="304.541016" xlink:href="#DejaVuSans-73"/>
     </g>
    </g>
   </g>
   <g id="matplotlib.axis_2">
    <g id="ytick_1">
     <g id="line2d_7">
      <defs>
       <path d="M 0 0 
L -3.5 0 
" id="m2755e33251" style="stroke:#000000;stroke-width:0.8;"/>
      </defs>
      <g>
       <use style="stroke:#000000;stroke-width:0.8;" x="57.6" xlink:href="#m2755e33251" y="307.584"/>
      </g>
     </g>
     <g id="text_8">
      <!-- 0.0 -->
      <g transform="translate(34.696875 311.383219)scale(0.1 -0.1)">
       <defs>
        <path d="M 684 794 
L 1344 794 
L 1344 0 
L 684 0 
L 684 794 
z
" id="DejaVuSans-2e" transform="scale(0.015625)"/>
       </defs>
       <use xlink:href="#DejaVuSans-30"/>
       <use x="63.623047" xlink:href="#DejaVuSans-2e"/>
       <use x="95.410156" xlink:href="#DejaVuSans-30"/>
      </g>
     </g>
    </g>
    <g id="ytick_2">
     <g id="line2d_8">
      <g>
       <use style="stroke:#000000;stroke-width:0.8;" x="57.6" xlink:href="#m2755e33251" y="254.3616"/>
      </g>
     </g>
     <g id="text_9">
      <!-- 0.2 -->
      <g transform="translate(34.696875 258.160819)scale(0.1 -0.1)">
       <use xlink:href="#DejaVuSans-30"/>
       <use x="63.623047" xlink:href="#DejaVuSans-2e"/>
       <use x="95.410156" xlink:href="#DejaVuSans-32"/>
      </g>
     </g>
    </g>
    <g id="ytick_3">
     <g id="line2d_9">
      <g>
       <use style="stroke:#000000;stroke-width:0.8;" x="57.6" xlink:href="#m2755e33251" y="201.1392"/>
      </g>
     </g>
     <g id="text_10">
      <!-- 0.4 -->
      <g transform="translate(34.696875 204.938419)scale(0.1 -0.1)">
       <defs>
        <path d="M 2419 4116 
L 825 1625 
L 2419 1625 
L 2419 4116 
z
M 2253 4666 
L 3047 4666 
L 3047 1625 
L 3713 1625 
L 3713 1100 
L 3047 1100 
L 3047 0 
L 2419 0 
L 2419 1100 
L 313 1100 
L 313 1709 
L 2253 4666 
z
" id="DejaVuSans-34" transform="scale(0.015625)"/>
       </defs>
       <use xlink:href="#DejaVuSans-30"/>
       <use x="63.623047" xlink:href="#DejaVuSans-2e"/>
       <use x="95.410156" xlink:href="#DejaVuSans-34"/>
      </g>
     </g>
    </g>
    <g id="ytick_4">
     <g id="line2d_10">
      <g>
       <use style="stroke:#000000;stroke-width:0.8;" x="57.6" xlink:href="#m2755e33251" y="147.9168"/>
      </g>
     </g>
     <g id="text_11">
      <!-- 0.6 -->
      <g transform="translate(34.696875 151.716019)scale(0.1 -0.1)">
       <defs>
        <path d="M 2113 2584 
Q 1688 2584 1439 2293 
Q 1191 2003 1191 1497 
Q 1191 994 1439 701 
Q 1688 409 2113 409 
Q 2538 409 2786 701 
Q 3034 994 3034 1497 
Q 3034 2003 2786 2293 
Q 2538 2584 2113 2584 
z
M 3366 4563 
L 3366 3988 
Q 3128 4100 2886 4159 
Q 2644 4219 2406 4219 
Q 1781 4219 1451 3797 
Q 1122 3375 1075 2522 
Q 1259 2794 1537 2939 
Q 1816 3084 2150 3084 
Q 2853 3084 3261 2657 
Q 3669 2231 3669 1497 
Q 3669 778 3244 343 
Q 2819 -91 2113 -91 
Q 1303 -91 875 529 
Q 447 1150 447 2328 
Q 447 3434 972 4092 
Q 1497 4750 2381 4750 
Q 2619 4750 2861 4703 
Q 3103 4656 3366 4563 
z
" id="DejaVuSans-36" transform="scale(0.015625)"/>
       </defs>
       <use xlink:href="#DejaVuSans-30"/>
       <use x="63.623047" xlink:href="#DejaVuSans-2e"/>
       <use x="95.410156" xlink:href="#DejaVuSans-36"/>
      </g>
     </g>
    </g>
    <g id="ytick_5">
     <g id="line2d_11">
      <g>
       <use style="stroke:#000000;stroke-width:0.8;" x="57.6" xlink:href="#m2755e33251" y="94.6944"/>
      </g>
     </g>
     <g id="text_12">
      <!-- 0.8 -->
      <g transform="translate(34.696875 98.493619)scale(0.1 -0.1)">
       <defs>
        <path d="M 2034 2216 
Q 1584 2216 1326 1975 
Q 1069 1734 1069 1313 
Q 1069 891 1326 650 
Q 1584 409 2034 409 
Q 2484 409 2743 651 
Q 3003 894 3003 1313 
Q 3003 1734 2745 1975 
Q 2488 2216 2034 2216 
z
M 1403 2484 
Q 997 2584 770 2862 
Q 544 3141 544 3541 
Q 544 4100 942 4425 
Q 1341 4750 2034 4750 
Q 2731 4750 3128 4425 
Q 3525 4100 3525 3541 
Q 3525 3141 3298 2862 
Q 3072 2584 2669 2484 
Q 3125 2378 3379 2068 
Q 3634 1759 3634 1313 
Q 3634 634 3220 271 
Q 2806 -91 2034 -91 
Q 1263 -91 848 271 
Q 434 634 434 1313 
Q 434 1759 690 2068 
Q 947 2378 1403 2484 
z
M 1172 3481 
Q 1172 3119 1398 2916 
Q 1625 2713 2034 2713 
Q 2441 2713 2670 2916 
Q 2900 3119 2900 3481 
Q 2900 3844 2670 4047 
Q 2441 4250 2034 4250 
Q 1625 4250 1398 4047 
Q 1172 3844 1172 3481 
z
" id="DejaVuSans-38" transform="scale(0.015625)"/>
       </defs>
       <use xlink:href="#DejaVuSans-30"/>
       <use x="63.623047" xlink:href="#DejaVuSans-2e"/>
       <use x="95.410156" xlink:href="#DejaVuSans-38"/>
      </g>
     </g>
    </g>
    <g id="ytick_6">
     <g id="line2d_12">
      <g>
       <use style="stroke:#000000;stroke-width:0.8;" x="57.6" xlink:href="#m2755e33251" y="41.472"/>
      </g>
     </g>
     <g id="text_13">
      <!-- 1.0 -->
      <g transform="translate(34.696875 45.271219)scale(0.1 -0.1)">
       <use xlink:href="#DejaVuSans-31"/>
       <use x="63.623047" xlink:href="#DejaVuSans-2e"/>
       <use x="95.410156" xlink:href="#DejaVuSans-30"/>
      </g>
     </g>
    </g>
    <g id="text_14">
     <!-- MAP scores -->
     <g transform="translate(28.617187 202.903781)rotate(-90)scale(0.1 -0.1)">
      <defs>
       <path d="M 628 4666 
L 1569 4666 
L 2759 1491 
L 3956 4666 
L 4897 4666 
L 4897 0 
L 4281 0 
L 4281 4097 
L 3078 897 
L 2444 897 
L 1241 4097 
L 1241 0 
L 628 0 
L 628 4666 
z
" id="DejaVuSans-4d" transform="scale(0.015625)"/>
       <path d="M 2188 4044 
L 1331 1722 
L 3047 1722 
L 2188 4044 
z
M 1831 4666 
L 2547 4666 
L 4325 0 
L 3669 0 
L 3244 1197 
L 1141 1197 
L 716 0 
L 50 0 
L 1831 4666 
z
" id="DejaVuSans-41" transform="scale(0.015625)"/>
       <path d="M 1259 4147 
L 1259 2394 
L 2053 2394 
Q 2494 2394 2734 2622 
Q 2975 2850 2975 3272 
Q 2975 3691 2734 3919 
Q 2494 4147 2053 4147 
L 1259 4147 
z
M 628 4666 
L 2053 4666 
Q 2838 4666 3239 4311 
Q 3641 3956 3641 3272 
Q 3641 2581 3239 2228 
Q 2838 1875 2053 1875 
L 1259 1875 
L 1259 0 
L 628 0 
L 628 4666 
z
" id="DejaVuSans-50" transform="scale(0.015625)"/>
       <path id="DejaVuSans-20" transform="scale(0.015625)"/>
       <path d="M 2631 2963 
Q 2534 3019 2420 3045 
Q 2306 3072 2169 3072 
Q 1681 3072 1420 2755 
Q 1159 2438 1159 1844 
L 1159 0 
L 581 0 
L 581 3500 
L 1159 3500 
L 1159 2956 
Q 1341 3275 1631 3429 
Q 1922 3584 2338 3584 
Q 2397 3584 2469 3576 
Q 2541 3569 2628 3553 
L 2631 2963 
z
" id="DejaVuSans-72" transform="scale(0.015625)"/>
      </defs>
      <use xlink:href="#DejaVuSans-4d"/>
      <use x="86.279297" xlink:href="#DejaVuSans-41"/>
      <use x="154.6875" xlink:href="#DejaVuSans-50"/>
      <use x="214.990234" xlink:href="#DejaVuSans-20"/>
      <use x="246.777344" xlink:href="#DejaVuSans-73"/>
      <use x="298.876953" xlink:href="#DejaVuSans-63"/>
      <use x="353.857422" xlink:href="#DejaVuSans-6f"/>
      <use x="415.039062" xlink:href="#DejaVuSans-72"/>
      <use x="453.902344" xlink:href="#DejaVuSans-65"/>
      <use x="515.425781" xlink:href="#DejaVuSans-73"/>
     </g>
    </g>
   </g>
   <g id="line2d_13">
    <path clip-path="url(#p4887b339bc)" d="M 73.832727 306.215357 
L 75.136561 306.328171 
L 79.048061 306.326285 
L 90.782563 306.621211 
L 102.517065 306.648114 
L 107.732399 306.59238 
L 114.251566 306.350525 
L 116.859233 305.410925 
L 118.163067 303.824664 
L 120.770734 302.39953 
L 122.074567 300.423523 
L 123.378401 278.051446 
L 124.682234 278.081025 
L 125.986068 277.924863 
L 128.593735 277.932107 
L 129.897568 277.31874 
L 149.455071 277.422043 
L 153.366572 277.302558 
L 155.974239 277.369756 
L 157.278072 277.283622 
L 159.885739 277.256415 
L 161.189573 277.477282 
L 163.79724 277.503173 
L 165.101073 277.1779 
L 166.404907 279.899536 
L 167.70874 297.104219 
L 169.012574 295.301402 
L 170.316407 300.151307 
L 171.620241 300.535769 
L 172.924074 300.426774 
L 174.227908 299.171257 
L 175.531742 301.651478 
L 176.835575 301.910609 
L 178.139409 301.976975 
L 180.747076 301.561816 
L 182.050909 301.662668 
L 183.354743 300.865164 
L 184.658576 300.432585 
L 185.96241 300.954959 
L 187.266243 301.627052 
L 188.570077 301.746208 
L 189.87391 301.591993 
L 191.177744 301.563568 
L 193.785411 300.957295 
L 195.089244 300.915088 
L 197.696911 300.107197 
L 199.000745 299.982314 
L 200.304578 300.400417 
L 204.216079 300.403467 
L 205.519912 300.092192 
L 206.823746 300.180823 
L 208.127579 300.125434 
L 209.431413 300.322907 
L 210.735246 300.262012 
L 212.03908 300.414587 
L 213.342913 300.066279 
L 219.862081 300.141184 
L 221.165915 299.990156 
L 222.469748 300.084505 
L 223.773582 300.308813 
L 227.685082 300.311603 
L 228.988916 300.563312 
L 231.596583 300.433287 
L 232.900416 300.503474 
L 234.20425 300.292815 
L 235.508083 299.636501 
L 236.811917 300.758288 
L 239.419584 300.616563 
L 242.027251 299.729811 
L 243.331084 300.186308 
L 244.634918 300.295107 
L 247.242585 299.415092 
L 248.546418 300.368521 
L 249.850252 300.385353 
L 251.154085 299.707577 
L 252.457919 300.127223 
L 253.761752 300.256964 
L 256.369419 300.185997 
L 257.673253 299.872077 
L 258.977087 299.862738 
L 260.28092 300.017925 
L 261.584754 299.687873 
L 262.888587 299.794358 
L 264.192421 299.499792 
L 265.496254 299.51188 
L 266.800088 299.412835 
L 268.103921 299.029394 
L 270.711588 299.188384 
L 272.015422 299.551533 
L 274.623089 299.81645 
L 275.926922 299.324829 
L 278.534589 299.506138 
L 279.838423 299.054106 
L 282.44609 299.329973 
L 283.749923 299.290714 
L 285.053757 298.942846 
L 286.35759 299.331937 
L 287.661424 299.576955 
L 288.965257 299.639872 
L 290.269091 299.402479 
L 291.572924 299.7511 
L 292.876758 299.900218 
L 294.180591 299.849099 
L 295.484425 299.992474 
L 296.788258 299.608664 
L 298.092092 299.548125 
L 299.395926 300.269578 
L 300.699759 299.65027 
L 303.307426 299.768181 
L 304.61126 300.140111 
L 305.915093 299.929589 
L 307.218927 300.108442 
L 308.52276 300.167808 
L 309.826594 299.995764 
L 311.130427 300.573687 
L 312.434261 300.137036 
L 313.738094 299.366093 
L 315.041928 300.362993 
L 316.345761 300.967952 
L 317.649595 300.886904 
L 318.953428 301.081933 
L 320.257262 300.669817 
L 321.561095 301.373318 
L 322.864929 301.648957 
L 324.168762 300.964988 
L 325.472596 301.423022 
L 326.776429 301.453193 
L 328.080263 300.971083 
L 329.384096 300.843274 
L 330.68793 300.898845 
L 331.991763 300.28152 
L 334.59943 301.041558 
L 335.903264 301.204062 
L 337.207097 300.929066 
L 338.510931 301.035595 
L 342.422432 300.733927 
L 345.030099 300.933556 
L 346.333932 301.363372 
L 347.637766 301.583779 
L 348.941599 301.456068 
L 351.549266 301.697109 
L 354.156933 302.295491 
L 355.460767 302.034697 
L 356.7646 302.14575 
L 359.372267 302.747745 
L 360.676101 302.431039 
L 361.979934 302.512444 
L 363.283768 302.012615 
L 364.587601 302.615614 
L 367.195268 302.464489 
L 368.499102 302.688579 
L 369.802935 302.413471 
L 371.106769 302.466595 
L 372.410602 301.94839 
L 373.714436 302.413028 
L 375.018269 302.38941 
L 376.322103 302.631872 
L 377.625936 303.332797 
L 384.145104 303.731816 
L 388.056605 304.342601 
L 390.664272 304.190813 
L 391.968105 304.867674 
L 393.271939 305.16237 
L 394.575772 305.235768 
L 395.879606 305.514054 
L 398.487273 305.714285 
L 398.487273 305.714285 
" style="fill:none;stroke:#1f77b4;stroke-linecap:square;stroke-width:1.5;"/>
    <defs>
     <path d="M 0 1 
C 0.265203 1 0.51958 0.894634 0.707107 0.707107 
C 0.894634 0.51958 1 0.265203 1 0 
C 1 -0.265203 0.894634 -0.51958 0.707107 -0.707107 
C 0.51958 -0.894634 0.265203 -1 0 -1 
C -0.265203 -1 -0.51958 -0.894634 -0.707107 -0.707107 
C -0.894634 -0.51958 -1 -0.265203 -1 0 
C -1 0.265203 -0.894634 0.51958 -0.707107 0.707107 
C -0.51958 0.894634 -0.265203 1 0 1 
z
" id="m8080d65711" style="stroke:#1f77b4;"/>
    </defs>
    <g clip-path="url(#p4887b339bc)">
     <use style="fill:#1f77b4;stroke:#1f77b4;" x="73.832727" xlink:href="#m8080d65711" y="306.215357"/>
     <use style="fill:#1f77b4;stroke:#1f77b4;" x="75.136561" xlink:href="#m8080d65711" y="306.328171"/>
     <use style="fill:#1f77b4;stroke:#1f77b4;" x="76.440394" xlink:href="#m8080d65711" y="306.306192"/>
     <use style="fill:#1f77b4;stroke:#1f77b4;" x="77.744228" xlink:href="#m8080d65711" y="306.322879"/>
     <use style="fill:#1f77b4;stroke:#1f77b4;" x="79.048061" xlink:href="#m8080d65711" y="306.326285"/>
     <use style="fill:#1f77b4;stroke:#1f77b4;" x="80.351895" xlink:href="#m8080d65711" y="306.370269"/>
     <use style="fill:#1f77b4;stroke:#1f77b4;" x="81.655728" xlink:href="#m8080d65711" y="306.41833"/>
     <use style="fill:#1f77b4;stroke:#1f77b4;" x="82.959562" xlink:href="#m8080d65711" y="306.495908"/>
     <use style="fill:#1f77b4;stroke:#1f77b4;" x="84.263395" xlink:href="#m8080d65711" y="306.529969"/>
     <use style="fill:#1f77b4;stroke:#1f77b4;" x="85.567229" xlink:href="#m8080d65711" y="306.546414"/>
     <use style="fill:#1f77b4;stroke:#1f77b4;" x="86.871062" xlink:href="#m8080d65711" y="306.557142"/>
     <use style="fill:#1f77b4;stroke:#1f77b4;" x="88.174896" xlink:href="#m8080d65711" y="306.615531"/>
     <use style="fill:#1f77b4;stroke:#1f77b4;" x="89.478729" xlink:href="#m8080d65711" y="306.624775"/>
     <use style="fill:#1f77b4;stroke:#1f77b4;" x="90.782563" xlink:href="#m8080d65711" y="306.621211"/>
     <use style="fill:#1f77b4;stroke:#1f77b4;" x="92.086396" xlink:href="#m8080d65711" y="306.636179"/>
     <use style="fill:#1f77b4;stroke:#1f77b4;" x="93.39023" xlink:href="#m8080d65711" y="306.649939"/>
     <use style="fill:#1f77b4;stroke:#1f77b4;" x="94.694064" xlink:href="#m8080d65711" y="306.65045"/>
     <use style="fill:#1f77b4;stroke:#1f77b4;" x="95.997897" xlink:href="#m8080d65711" y="306.644737"/>
     <use style="fill:#1f77b4;stroke:#1f77b4;" x="97.301731" xlink:href="#m8080d65711" y="306.645917"/>
     <use style="fill:#1f77b4;stroke:#1f77b4;" x="98.605564" xlink:href="#m8080d65711" y="306.658032"/>
     <use style="fill:#1f77b4;stroke:#1f77b4;" x="99.909398" xlink:href="#m8080d65711" y="306.658213"/>
     <use style="fill:#1f77b4;stroke:#1f77b4;" x="101.213231" xlink:href="#m8080d65711" y="306.659822"/>
     <use style="fill:#1f77b4;stroke:#1f77b4;" x="102.517065" xlink:href="#m8080d65711" y="306.648114"/>
     <use style="fill:#1f77b4;stroke:#1f77b4;" x="103.820898" xlink:href="#m8080d65711" y="306.658442"/>
     <use style="fill:#1f77b4;stroke:#1f77b4;" x="105.124732" xlink:href="#m8080d65711" y="306.638424"/>
     <use style="fill:#1f77b4;stroke:#1f77b4;" x="106.428565" xlink:href="#m8080d65711" y="306.638078"/>
     <use style="fill:#1f77b4;stroke:#1f77b4;" x="107.732399" xlink:href="#m8080d65711" y="306.59238"/>
     <use style="fill:#1f77b4;stroke:#1f77b4;" x="109.036232" xlink:href="#m8080d65711" y="306.533837"/>
     <use style="fill:#1f77b4;stroke:#1f77b4;" x="110.340066" xlink:href="#m8080d65711" y="306.516912"/>
     <use style="fill:#1f77b4;stroke:#1f77b4;" x="111.643899" xlink:href="#m8080d65711" y="306.524235"/>
     <use style="fill:#1f77b4;stroke:#1f77b4;" x="112.947733" xlink:href="#m8080d65711" y="306.452037"/>
     <use style="fill:#1f77b4;stroke:#1f77b4;" x="114.251566" xlink:href="#m8080d65711" y="306.350525"/>
     <use style="fill:#1f77b4;stroke:#1f77b4;" x="115.5554" xlink:href="#m8080d65711" y="305.93357"/>
     <use style="fill:#1f77b4;stroke:#1f77b4;" x="116.859233" xlink:href="#m8080d65711" y="305.410925"/>
     <use style="fill:#1f77b4;stroke:#1f77b4;" x="118.163067" xlink:href="#m8080d65711" y="303.824664"/>
     <use style="fill:#1f77b4;stroke:#1f77b4;" x="119.4669" xlink:href="#m8080d65711" y="303.156043"/>
     <use style="fill:#1f77b4;stroke:#1f77b4;" x="120.770734" xlink:href="#m8080d65711" y="302.39953"/>
     <use style="fill:#1f77b4;stroke:#1f77b4;" x="122.074567" xlink:href="#m8080d65711" y="300.423523"/>
     <use style="fill:#1f77b4;stroke:#1f77b4;" x="123.378401" xlink:href="#m8080d65711" y="278.051446"/>
     <use style="fill:#1f77b4;stroke:#1f77b4;" x="124.682234" xlink:href="#m8080d65711" y="278.081025"/>
     <use style="fill:#1f77b4;stroke:#1f77b4;" x="125.986068" xlink:href="#m8080d65711" y="277.924863"/>
     <use style="fill:#1f77b4;stroke:#1f77b4;" x="127.289901" xlink:href="#m8080d65711" y="277.973592"/>
     <use style="fill:#1f77b4;stroke:#1f77b4;" x="128.593735" xlink:href="#m8080d65711" y="277.932107"/>
     <use style="fill:#1f77b4;stroke:#1f77b4;" x="129.897568" xlink:href="#m8080d65711" y="277.31874"/>
     <use style="fill:#1f77b4;stroke:#1f77b4;" x="131.201402" xlink:href="#m8080d65711" y="277.332452"/>
     <use style="fill:#1f77b4;stroke:#1f77b4;" x="132.505235" xlink:href="#m8080d65711" y="277.339938"/>
     <use style="fill:#1f77b4;stroke:#1f77b4;" x="133.809069" xlink:href="#m8080d65711" y="277.353696"/>
     <use style="fill:#1f77b4;stroke:#1f77b4;" x="135.112903" xlink:href="#m8080d65711" y="277.306545"/>
     <use style="fill:#1f77b4;stroke:#1f77b4;" x="136.416736" xlink:href="#m8080d65711" y="277.306652"/>
     <use style="fill:#1f77b4;stroke:#1f77b4;" x="137.72057" xlink:href="#m8080d65711" y="277.355039"/>
     <use style="fill:#1f77b4;stroke:#1f77b4;" x="139.024403" xlink:href="#m8080d65711" y="277.401807"/>
     <use style="fill:#1f77b4;stroke:#1f77b4;" x="140.328237" xlink:href="#m8080d65711" y="277.474379"/>
     <use style="fill:#1f77b4;stroke:#1f77b4;" x="141.63207" xlink:href="#m8080d65711" y="277.505383"/>
     <use style="fill:#1f77b4;stroke:#1f77b4;" x="142.935904" xlink:href="#m8080d65711" y="277.512616"/>
     <use style="fill:#1f77b4;stroke:#1f77b4;" x="144.239737" xlink:href="#m8080d65711" y="277.488292"/>
     <use style="fill:#1f77b4;stroke:#1f77b4;" x="145.543571" xlink:href="#m8080d65711" y="277.499307"/>
     <use style="fill:#1f77b4;stroke:#1f77b4;" x="146.847404" xlink:href="#m8080d65711" y="277.469174"/>
     <use style="fill:#1f77b4;stroke:#1f77b4;" x="148.151238" xlink:href="#m8080d65711" y="277.436327"/>
     <use style="fill:#1f77b4;stroke:#1f77b4;" x="149.455071" xlink:href="#m8080d65711" y="277.422043"/>
     <use style="fill:#1f77b4;stroke:#1f77b4;" x="150.758905" xlink:href="#m8080d65711" y="277.348266"/>
     <use style="fill:#1f77b4;stroke:#1f77b4;" x="152.062738" xlink:href="#m8080d65711" y="277.310428"/>
     <use style="fill:#1f77b4;stroke:#1f77b4;" x="153.366572" xlink:href="#m8080d65711" y="277.302558"/>
     <use style="fill:#1f77b4;stroke:#1f77b4;" x="154.670405" xlink:href="#m8080d65711" y="277.340793"/>
     <use style="fill:#1f77b4;stroke:#1f77b4;" x="155.974239" xlink:href="#m8080d65711" y="277.369756"/>
     <use style="fill:#1f77b4;stroke:#1f77b4;" x="157.278072" xlink:href="#m8080d65711" y="277.283622"/>
     <use style="fill:#1f77b4;stroke:#1f77b4;" x="158.581906" xlink:href="#m8080d65711" y="277.31068"/>
     <use style="fill:#1f77b4;stroke:#1f77b4;" x="159.885739" xlink:href="#m8080d65711" y="277.256415"/>
     <use style="fill:#1f77b4;stroke:#1f77b4;" x="161.189573" xlink:href="#m8080d65711" y="277.477282"/>
     <use style="fill:#1f77b4;stroke:#1f77b4;" x="162.493406" xlink:href="#m8080d65711" y="277.520336"/>
     <use style="fill:#1f77b4;stroke:#1f77b4;" x="163.79724" xlink:href="#m8080d65711" y="277.503173"/>
     <use style="fill:#1f77b4;stroke:#1f77b4;" x="165.101073" xlink:href="#m8080d65711" y="277.1779"/>
     <use style="fill:#1f77b4;stroke:#1f77b4;" x="166.404907" xlink:href="#m8080d65711" y="279.899536"/>
     <use style="fill:#1f77b4;stroke:#1f77b4;" x="167.70874" xlink:href="#m8080d65711" y="297.104219"/>
     <use style="fill:#1f77b4;stroke:#1f77b4;" x="169.012574" xlink:href="#m8080d65711" y="295.301402"/>
     <use style="fill:#1f77b4;stroke:#1f77b4;" x="170.316407" xlink:href="#m8080d65711" y="300.151307"/>
     <use style="fill:#1f77b4;stroke:#1f77b4;" x="171.620241" xlink:href="#m8080d65711" y="300.535769"/>
     <use style="fill:#1f77b4;stroke:#1f77b4;" x="172.924074" xlink:href="#m8080d65711" y="300.426774"/>
     <use style="fill:#1f77b4;stroke:#1f77b4;" x="174.227908" xlink:href="#m8080d65711" y="299.171257"/>
     <use style="fill:#1f77b4;stroke:#1f77b4;" x="175.531742" xlink:href="#m8080d65711" y="301.651478"/>
     <use style="fill:#1f77b4;stroke:#1f77b4;" x="176.835575" xlink:href="#m8080d65711" y="301.910609"/>
     <use style="fill:#1f77b4;stroke:#1f77b4;" x="178.139409" xlink:href="#m8080d65711" y="301.976975"/>
     <use style="fill:#1f77b4;stroke:#1f77b4;" x="179.443242" xlink:href="#m8080d65711" y="301.80256"/>
     <use style="fill:#1f77b4;stroke:#1f77b4;" x="180.747076" xlink:href="#m8080d65711" y="301.561816"/>
     <use style="fill:#1f77b4;stroke:#1f77b4;" x="182.050909" xlink:href="#m8080d65711" y="301.662668"/>
     <use style="fill:#1f77b4;stroke:#1f77b4;" x="183.354743" xlink:href="#m8080d65711" y="300.865164"/>
     <use style="fill:#1f77b4;stroke:#1f77b4;" x="184.658576" xlink:href="#m8080d65711" y="300.432585"/>
     <use style="fill:#1f77b4;stroke:#1f77b4;" x="185.96241" xlink:href="#m8080d65711" y="300.954959"/>
     <use style="fill:#1f77b4;stroke:#1f77b4;" x="187.266243" xlink:href="#m8080d65711" y="301.627052"/>
     <use style="fill:#1f77b4;stroke:#1f77b4;" x="188.570077" xlink:href="#m8080d65711" y="301.746208"/>
     <use style="fill:#1f77b4;stroke:#1f77b4;" x="189.87391" xlink:href="#m8080d65711" y="301.591993"/>
     <use style="fill:#1f77b4;stroke:#1f77b4;" x="191.177744" xlink:href="#m8080d65711" y="301.563568"/>
     <use style="fill:#1f77b4;stroke:#1f77b4;" x="192.481577" xlink:href="#m8080d65711" y="301.295438"/>
     <use style="fill:#1f77b4;stroke:#1f77b4;" x="193.785411" xlink:href="#m8080d65711" y="300.957295"/>
     <use style="fill:#1f77b4;stroke:#1f77b4;" x="195.089244" xlink:href="#m8080d65711" y="300.915088"/>
     <use style="fill:#1f77b4;stroke:#1f77b4;" x="196.393078" xlink:href="#m8080d65711" y="300.509655"/>
     <use style="fill:#1f77b4;stroke:#1f77b4;" x="197.696911" xlink:href="#m8080d65711" y="300.107197"/>
     <use style="fill:#1f77b4;stroke:#1f77b4;" x="199.000745" xlink:href="#m8080d65711" y="299.982314"/>
     <use style="fill:#1f77b4;stroke:#1f77b4;" x="200.304578" xlink:href="#m8080d65711" y="300.400417"/>
     <use style="fill:#1f77b4;stroke:#1f77b4;" x="201.608412" xlink:href="#m8080d65711" y="300.430725"/>
     <use style="fill:#1f77b4;stroke:#1f77b4;" x="202.912245" xlink:href="#m8080d65711" y="300.369285"/>
     <use style="fill:#1f77b4;stroke:#1f77b4;" x="204.216079" xlink:href="#m8080d65711" y="300.403467"/>
     <use style="fill:#1f77b4;stroke:#1f77b4;" x="205.519912" xlink:href="#m8080d65711" y="300.092192"/>
     <use style="fill:#1f77b4;stroke:#1f77b4;" x="206.823746" xlink:href="#m8080d65711" y="300.180823"/>
     <use style="fill:#1f77b4;stroke:#1f77b4;" x="208.127579" xlink:href="#m8080d65711" y="300.125434"/>
     <use style="fill:#1f77b4;stroke:#1f77b4;" x="209.431413" xlink:href="#m8080d65711" y="300.322907"/>
     <use style="fill:#1f77b4;stroke:#1f77b4;" x="210.735246" xlink:href="#m8080d65711" y="300.262012"/>
     <use style="fill:#1f77b4;stroke:#1f77b4;" x="212.03908" xlink:href="#m8080d65711" y="300.414587"/>
     <use style="fill:#1f77b4;stroke:#1f77b4;" x="213.342913" xlink:href="#m8080d65711" y="300.066279"/>
     <use style="fill:#1f77b4;stroke:#1f77b4;" x="214.646747" xlink:href="#m8080d65711" y="300.083116"/>
     <use style="fill:#1f77b4;stroke:#1f77b4;" x="215.950581" xlink:href="#m8080d65711" y="300.035022"/>
     <use style="fill:#1f77b4;stroke:#1f77b4;" x="217.254414" xlink:href="#m8080d65711" y="300.070749"/>
     <use style="fill:#1f77b4;stroke:#1f77b4;" x="218.558248" xlink:href="#m8080d65711" y="300.170433"/>
     <use style="fill:#1f77b4;stroke:#1f77b4;" x="219.862081" xlink:href="#m8080d65711" y="300.141184"/>
     <use style="fill:#1f77b4;stroke:#1f77b4;" x="221.165915" xlink:href="#m8080d65711" y="299.990156"/>
     <use style="fill:#1f77b4;stroke:#1f77b4;" x="222.469748" xlink:href="#m8080d65711" y="300.084505"/>
     <use style="fill:#1f77b4;stroke:#1f77b4;" x="223.773582" xlink:href="#m8080d65711" y="300.308813"/>
     <use style="fill:#1f77b4;stroke:#1f77b4;" x="225.077415" xlink:href="#m8080d65711" y="300.333387"/>
     <use style="fill:#1f77b4;stroke:#1f77b4;" x="226.381249" xlink:href="#m8080d65711" y="300.262748"/>
     <use style="fill:#1f77b4;stroke:#1f77b4;" x="227.685082" xlink:href="#m8080d65711" y="300.311603"/>
     <use style="fill:#1f77b4;stroke:#1f77b4;" x="228.988916" xlink:href="#m8080d65711" y="300.563312"/>
     <use style="fill:#1f77b4;stroke:#1f77b4;" x="230.292749" xlink:href="#m8080d65711" y="300.490036"/>
     <use style="fill:#1f77b4;stroke:#1f77b4;" x="231.596583" xlink:href="#m8080d65711" y="300.433287"/>
     <use style="fill:#1f77b4;stroke:#1f77b4;" x="232.900416" xlink:href="#m8080d65711" y="300.503474"/>
     <use style="fill:#1f77b4;stroke:#1f77b4;" x="234.20425" xlink:href="#m8080d65711" y="300.292815"/>
     <use style="fill:#1f77b4;stroke:#1f77b4;" x="235.508083" xlink:href="#m8080d65711" y="299.636501"/>
     <use style="fill:#1f77b4;stroke:#1f77b4;" x="236.811917" xlink:href="#m8080d65711" y="300.758288"/>
     <use style="fill:#1f77b4;stroke:#1f77b4;" x="238.11575" xlink:href="#m8080d65711" y="300.662961"/>
     <use style="fill:#1f77b4;stroke:#1f77b4;" x="239.419584" xlink:href="#m8080d65711" y="300.616563"/>
     <use style="fill:#1f77b4;stroke:#1f77b4;" x="240.723417" xlink:href="#m8080d65711" y="300.206947"/>
     <use style="fill:#1f77b4;stroke:#1f77b4;" x="242.027251" xlink:href="#m8080d65711" y="299.729811"/>
     <use style="fill:#1f77b4;stroke:#1f77b4;" x="243.331084" xlink:href="#m8080d65711" y="300.186308"/>
     <use style="fill:#1f77b4;stroke:#1f77b4;" x="244.634918" xlink:href="#m8080d65711" y="300.295107"/>
     <use style="fill:#1f77b4;stroke:#1f77b4;" x="245.938751" xlink:href="#m8080d65711" y="299.907072"/>
     <use style="fill:#1f77b4;stroke:#1f77b4;" x="247.242585" xlink:href="#m8080d65711" y="299.415092"/>
     <use style="fill:#1f77b4;stroke:#1f77b4;" x="248.546418" xlink:href="#m8080d65711" y="300.368521"/>
     <use style="fill:#1f77b4;stroke:#1f77b4;" x="249.850252" xlink:href="#m8080d65711" y="300.385353"/>
     <use style="fill:#1f77b4;stroke:#1f77b4;" x="251.154085" xlink:href="#m8080d65711" y="299.707577"/>
     <use style="fill:#1f77b4;stroke:#1f77b4;" x="252.457919" xlink:href="#m8080d65711" y="300.127223"/>
     <use style="fill:#1f77b4;stroke:#1f77b4;" x="253.761752" xlink:href="#m8080d65711" y="300.256964"/>
     <use style="fill:#1f77b4;stroke:#1f77b4;" x="255.065586" xlink:href="#m8080d65711" y="300.269559"/>
     <use style="fill:#1f77b4;stroke:#1f77b4;" x="256.369419" xlink:href="#m8080d65711" y="300.185997"/>
     <use style="fill:#1f77b4;stroke:#1f77b4;" x="257.673253" xlink:href="#m8080d65711" y="299.872077"/>
     <use style="fill:#1f77b4;stroke:#1f77b4;" x="258.977087" xlink:href="#m8080d65711" y="299.862738"/>
     <use style="fill:#1f77b4;stroke:#1f77b4;" x="260.28092" xlink:href="#m8080d65711" y="300.017925"/>
     <use style="fill:#1f77b4;stroke:#1f77b4;" x="261.584754" xlink:href="#m8080d65711" y="299.687873"/>
     <use style="fill:#1f77b4;stroke:#1f77b4;" x="262.888587" xlink:href="#m8080d65711" y="299.794358"/>
     <use style="fill:#1f77b4;stroke:#1f77b4;" x="264.192421" xlink:href="#m8080d65711" y="299.499792"/>
     <use style="fill:#1f77b4;stroke:#1f77b4;" x="265.496254" xlink:href="#m8080d65711" y="299.51188"/>
     <use style="fill:#1f77b4;stroke:#1f77b4;" x="266.800088" xlink:href="#m8080d65711" y="299.412835"/>
     <use style="fill:#1f77b4;stroke:#1f77b4;" x="268.103921" xlink:href="#m8080d65711" y="299.029394"/>
     <use style="fill:#1f77b4;stroke:#1f77b4;" x="269.407755" xlink:href="#m8080d65711" y="299.060366"/>
     <use style="fill:#1f77b4;stroke:#1f77b4;" x="270.711588" xlink:href="#m8080d65711" y="299.188384"/>
     <use style="fill:#1f77b4;stroke:#1f77b4;" x="272.015422" xlink:href="#m8080d65711" y="299.551533"/>
     <use style="fill:#1f77b4;stroke:#1f77b4;" x="273.319255" xlink:href="#m8080d65711" y="299.670657"/>
     <use style="fill:#1f77b4;stroke:#1f77b4;" x="274.623089" xlink:href="#m8080d65711" y="299.81645"/>
     <use style="fill:#1f77b4;stroke:#1f77b4;" x="275.926922" xlink:href="#m8080d65711" y="299.324829"/>
     <use style="fill:#1f77b4;stroke:#1f77b4;" x="277.230756" xlink:href="#m8080d65711" y="299.413529"/>
     <use style="fill:#1f77b4;stroke:#1f77b4;" x="278.534589" xlink:href="#m8080d65711" y="299.506138"/>
     <use style="fill:#1f77b4;stroke:#1f77b4;" x="279.838423" xlink:href="#m8080d65711" y="299.054106"/>
     <use style="fill:#1f77b4;stroke:#1f77b4;" x="281.142256" xlink:href="#m8080d65711" y="299.208591"/>
     <use style="fill:#1f77b4;stroke:#1f77b4;" x="282.44609" xlink:href="#m8080d65711" y="299.329973"/>
     <use style="fill:#1f77b4;stroke:#1f77b4;" x="283.749923" xlink:href="#m8080d65711" y="299.290714"/>
     <use style="fill:#1f77b4;stroke:#1f77b4;" x="285.053757" xlink:href="#m8080d65711" y="298.942846"/>
     <use style="fill:#1f77b4;stroke:#1f77b4;" x="286.35759" xlink:href="#m8080d65711" y="299.331937"/>
     <use style="fill:#1f77b4;stroke:#1f77b4;" x="287.661424" xlink:href="#m8080d65711" y="299.576955"/>
     <use style="fill:#1f77b4;stroke:#1f77b4;" x="288.965257" xlink:href="#m8080d65711" y="299.639872"/>
     <use style="fill:#1f77b4;stroke:#1f77b4;" x="290.269091" xlink:href="#m8080d65711" y="299.402479"/>
     <use style="fill:#1f77b4;stroke:#1f77b4;" x="291.572924" xlink:href="#m8080d65711" y="299.7511"/>
     <use style="fill:#1f77b4;stroke:#1f77b4;" x="292.876758" xlink:href="#m8080d65711" y="299.900218"/>
     <use style="fill:#1f77b4;stroke:#1f77b4;" x="294.180591" xlink:href="#m8080d65711" y="299.849099"/>
     <use style="fill:#1f77b4;stroke:#1f77b4;" x="295.484425" xlink:href="#m8080d65711" y="299.992474"/>
     <use style="fill:#1f77b4;stroke:#1f77b4;" x="296.788258" xlink:href="#m8080d65711" y="299.608664"/>
     <use style="fill:#1f77b4;stroke:#1f77b4;" x="298.092092" xlink:href="#m8080d65711" y="299.548125"/>
     <use style="fill:#1f77b4;stroke:#1f77b4;" x="299.395926" xlink:href="#m8080d65711" y="300.269578"/>
     <use style="fill:#1f77b4;stroke:#1f77b4;" x="300.699759" xlink:href="#m8080d65711" y="299.65027"/>
     <use style="fill:#1f77b4;stroke:#1f77b4;" x="302.003593" xlink:href="#m8080d65711" y="299.676483"/>
     <use style="fill:#1f77b4;stroke:#1f77b4;" x="303.307426" xlink:href="#m8080d65711" y="299.768181"/>
     <use style="fill:#1f77b4;stroke:#1f77b4;" x="304.61126" xlink:href="#m8080d65711" y="300.140111"/>
     <use style="fill:#1f77b4;stroke:#1f77b4;" x="305.915093" xlink:href="#m8080d65711" y="299.929589"/>
     <use style="fill:#1f77b4;stroke:#1f77b4;" x="307.218927" xlink:href="#m8080d65711" y="300.108442"/>
     <use style="fill:#1f77b4;stroke:#1f77b4;" x="308.52276" xlink:href="#m8080d65711" y="300.167808"/>
     <use style="fill:#1f77b4;stroke:#1f77b4;" x="309.826594" xlink:href="#m8080d65711" y="299.995764"/>
     <use style="fill:#1f77b4;stroke:#1f77b4;" x="311.130427" xlink:href="#m8080d65711" y="300.573687"/>
     <use style="fill:#1f77b4;stroke:#1f77b4;" x="312.434261" xlink:href="#m8080d65711" y="300.137036"/>
     <use style="fill:#1f77b4;stroke:#1f77b4;" x="313.738094" xlink:href="#m8080d65711" y="299.366093"/>
     <use style="fill:#1f77b4;stroke:#1f77b4;" x="315.041928" xlink:href="#m8080d65711" y="300.362993"/>
     <use style="fill:#1f77b4;stroke:#1f77b4;" x="316.345761" xlink:href="#m8080d65711" y="300.967952"/>
     <use style="fill:#1f77b4;stroke:#1f77b4;" x="317.649595" xlink:href="#m8080d65711" y="300.886904"/>
     <use style="fill:#1f77b4;stroke:#1f77b4;" x="318.953428" xlink:href="#m8080d65711" y="301.081933"/>
     <use style="fill:#1f77b4;stroke:#1f77b4;" x="320.257262" xlink:href="#m8080d65711" y="300.669817"/>
     <use style="fill:#1f77b4;stroke:#1f77b4;" x="321.561095" xlink:href="#m8080d65711" y="301.373318"/>
     <use style="fill:#1f77b4;stroke:#1f77b4;" x="322.864929" xlink:href="#m8080d65711" y="301.648957"/>
     <use style="fill:#1f77b4;stroke:#1f77b4;" x="324.168762" xlink:href="#m8080d65711" y="300.964988"/>
     <use style="fill:#1f77b4;stroke:#1f77b4;" x="325.472596" xlink:href="#m8080d65711" y="301.423022"/>
     <use style="fill:#1f77b4;stroke:#1f77b4;" x="326.776429" xlink:href="#m8080d65711" y="301.453193"/>
     <use style="fill:#1f77b4;stroke:#1f77b4;" x="328.080263" xlink:href="#m8080d65711" y="300.971083"/>
     <use style="fill:#1f77b4;stroke:#1f77b4;" x="329.384096" xlink:href="#m8080d65711" y="300.843274"/>
     <use style="fill:#1f77b4;stroke:#1f77b4;" x="330.68793" xlink:href="#m8080d65711" y="300.898845"/>
     <use style="fill:#1f77b4;stroke:#1f77b4;" x="331.991763" xlink:href="#m8080d65711" y="300.28152"/>
     <use style="fill:#1f77b4;stroke:#1f77b4;" x="333.295597" xlink:href="#m8080d65711" y="300.709356"/>
     <use style="fill:#1f77b4;stroke:#1f77b4;" x="334.59943" xlink:href="#m8080d65711" y="301.041558"/>
     <use style="fill:#1f77b4;stroke:#1f77b4;" x="335.903264" xlink:href="#m8080d65711" y="301.204062"/>
     <use style="fill:#1f77b4;stroke:#1f77b4;" x="337.207097" xlink:href="#m8080d65711" y="300.929066"/>
     <use style="fill:#1f77b4;stroke:#1f77b4;" x="338.510931" xlink:href="#m8080d65711" y="301.035595"/>
     <use style="fill:#1f77b4;stroke:#1f77b4;" x="339.814765" xlink:href="#m8080d65711" y="300.898735"/>
     <use style="fill:#1f77b4;stroke:#1f77b4;" x="341.118598" xlink:href="#m8080d65711" y="300.74025"/>
     <use style="fill:#1f77b4;stroke:#1f77b4;" x="342.422432" xlink:href="#m8080d65711" y="300.733927"/>
     <use style="fill:#1f77b4;stroke:#1f77b4;" x="343.726265" xlink:href="#m8080d65711" y="300.870329"/>
     <use style="fill:#1f77b4;stroke:#1f77b4;" x="345.030099" xlink:href="#m8080d65711" y="300.933556"/>
     <use style="fill:#1f77b4;stroke:#1f77b4;" x="346.333932" xlink:href="#m8080d65711" y="301.363372"/>
     <use style="fill:#1f77b4;stroke:#1f77b4;" x="347.637766" xlink:href="#m8080d65711" y="301.583779"/>
     <use style="fill:#1f77b4;stroke:#1f77b4;" x="348.941599" xlink:href="#m8080d65711" y="301.456068"/>
     <use style="fill:#1f77b4;stroke:#1f77b4;" x="350.245433" xlink:href="#m8080d65711" y="301.540636"/>
     <use style="fill:#1f77b4;stroke:#1f77b4;" x="351.549266" xlink:href="#m8080d65711" y="301.697109"/>
     <use style="fill:#1f77b4;stroke:#1f77b4;" x="352.8531" xlink:href="#m8080d65711" y="302.006638"/>
     <use style="fill:#1f77b4;stroke:#1f77b4;" x="354.156933" xlink:href="#m8080d65711" y="302.295491"/>
     <use style="fill:#1f77b4;stroke:#1f77b4;" x="355.460767" xlink:href="#m8080d65711" y="302.034697"/>
     <use style="fill:#1f77b4;stroke:#1f77b4;" x="356.7646" xlink:href="#m8080d65711" y="302.14575"/>
     <use style="fill:#1f77b4;stroke:#1f77b4;" x="358.068434" xlink:href="#m8080d65711" y="302.419865"/>
     <use style="fill:#1f77b4;stroke:#1f77b4;" x="359.372267" xlink:href="#m8080d65711" y="302.747745"/>
     <use style="fill:#1f77b4;stroke:#1f77b4;" x="360.676101" xlink:href="#m8080d65711" y="302.431039"/>
     <use style="fill:#1f77b4;stroke:#1f77b4;" x="361.979934" xlink:href="#m8080d65711" y="302.512444"/>
     <use style="fill:#1f77b4;stroke:#1f77b4;" x="363.283768" xlink:href="#m8080d65711" y="302.012615"/>
     <use style="fill:#1f77b4;stroke:#1f77b4;" x="364.587601" xlink:href="#m8080d65711" y="302.615614"/>
     <use style="fill:#1f77b4;stroke:#1f77b4;" x="365.891435" xlink:href="#m8080d65711" y="302.536303"/>
     <use style="fill:#1f77b4;stroke:#1f77b4;" x="367.195268" xlink:href="#m8080d65711" y="302.464489"/>
     <use style="fill:#1f77b4;stroke:#1f77b4;" x="368.499102" xlink:href="#m8080d65711" y="302.688579"/>
     <use style="fill:#1f77b4;stroke:#1f77b4;" x="369.802935" xlink:href="#m8080d65711" y="302.413471"/>
     <use style="fill:#1f77b4;stroke:#1f77b4;" x="371.106769" xlink:href="#m8080d65711" y="302.466595"/>
     <use style="fill:#1f77b4;stroke:#1f77b4;" x="372.410602" xlink:href="#m8080d65711" y="301.94839"/>
     <use style="fill:#1f77b4;stroke:#1f77b4;" x="373.714436" xlink:href="#m8080d65711" y="302.413028"/>
     <use style="fill:#1f77b4;stroke:#1f77b4;" x="375.018269" xlink:href="#m8080d65711" y="302.38941"/>
     <use style="fill:#1f77b4;stroke:#1f77b4;" x="376.322103" xlink:href="#m8080d65711" y="302.631872"/>
     <use style="fill:#1f77b4;stroke:#1f77b4;" x="377.625936" xlink:href="#m8080d65711" y="303.332797"/>
     <use style="fill:#1f77b4;stroke:#1f77b4;" x="378.92977" xlink:href="#m8080d65711" y="303.413759"/>
     <use style="fill:#1f77b4;stroke:#1f77b4;" x="380.233604" xlink:href="#m8080d65711" y="303.583917"/>
     <use style="fill:#1f77b4;stroke:#1f77b4;" x="381.537437" xlink:href="#m8080d65711" y="303.671457"/>
     <use style="fill:#1f77b4;stroke:#1f77b4;" x="382.841271" xlink:href="#m8080d65711" y="303.594039"/>
     <use style="fill:#1f77b4;stroke:#1f77b4;" x="384.145104" xlink:href="#m8080d65711" y="303.731816"/>
     <use style="fill:#1f77b4;stroke:#1f77b4;" x="385.448938" xlink:href="#m8080d65711" y="303.932228"/>
     <use style="fill:#1f77b4;stroke:#1f77b4;" x="386.752771" xlink:href="#m8080d65711" y="304.058714"/>
     <use style="fill:#1f77b4;stroke:#1f77b4;" x="388.056605" xlink:href="#m8080d65711" y="304.342601"/>
     <use style="fill:#1f77b4;stroke:#1f77b4;" x="389.360438" xlink:href="#m8080d65711" y="304.285559"/>
     <use style="fill:#1f77b4;stroke:#1f77b4;" x="390.664272" xlink:href="#m8080d65711" y="304.190813"/>
     <use style="fill:#1f77b4;stroke:#1f77b4;" x="391.968105" xlink:href="#m8080d65711" y="304.867674"/>
     <use style="fill:#1f77b4;stroke:#1f77b4;" x="393.271939" xlink:href="#m8080d65711" y="305.16237"/>
     <use style="fill:#1f77b4;stroke:#1f77b4;" x="394.575772" xlink:href="#m8080d65711" y="305.235768"/>
     <use style="fill:#1f77b4;stroke:#1f77b4;" x="395.879606" xlink:href="#m8080d65711" y="305.514054"/>
     <use style="fill:#1f77b4;stroke:#1f77b4;" x="397.183439" xlink:href="#m8080d65711" y="305.595845"/>
     <use style="fill:#1f77b4;stroke:#1f77b4;" x="398.487273" xlink:href="#m8080d65711" y="305.714285"/>
    </g>
   </g>
   <g id="patch_3">
    <path d="M 57.6 307.584 
L 57.6 41.472 
" style="fill:none;stroke:#000000;stroke-linecap:square;stroke-linejoin:miter;stroke-width:0.8;"/>
   </g>
   <g id="patch_4">
    <path d="M 414.72 307.584 
L 414.72 41.472 
" style="fill:none;stroke:#000000;stroke-linecap:square;stroke-linejoin:miter;stroke-width:0.8;"/>
   </g>
   <g id="patch_5">
    <path d="M 57.6 307.584 
L 414.72 307.584 
" style="fill:none;stroke:#000000;stroke-linecap:square;stroke-linejoin:miter;stroke-width:0.8;"/>
   </g>
   <g id="patch_6">
    <path d="M 57.6 41.472 
L 414.72 41.472 
" style="fill:none;stroke:#000000;stroke-linecap:square;stroke-linejoin:miter;stroke-width:0.8;"/>
   </g>
  </g>
 </g>
 <defs>
  <clipPath id="p4887b339bc">
   <rect height="266.112" width="357.12" x="57.6" y="41.472"/>
  </clipPath>
 </defs>
</svg>
